# xmcd CD database file
#
# Track frame offsets:
#	150
#	23452
#	49482
#	61952
#	74885
#	87690
#	112130
#	127805
#	143540
#	155035
#	168287
#	188407
#	244720
#
# Disc length: 3956 seconds
#
# Revision: 0
# Processed by: cddbd v1.5.1PL0 Copyright (c) Steve Scherf et al.
# Submitted via: CDex 1.50
#
DISCID=b50f720d
DTITLE=Bud Powell - Parisian Thoroughfares
DYEAR=2003
DGENRE=Jazz
TTITLE0=Yesterdays
TTITLE1=Omicron
TTITLE2=Anthropology (Incomplete)
TTITLE3=John's Abbey
TTITLE4=Shaw 'Nuff
TTITLE5=Buzzy
TTITLE6=Just One of Those Things
TTITLE7=No Problem
TTITLE8=Pie Eye
TTITLE9=52nd Street Theme
TTITLE10=Miguel's Party
TTITLE11=Groovin' High
TTITLE12=Blue Red Blues - 52nd Street Theme
EXTD=YEAR: 2003
EXTT0=
EXTT1=
EXTT2=
EXTT3=
EXTT4=
EXTT5=
EXTT6=
EXTT7=
EXTT8=
EXTT9=
EXTT10=
EXTT11=
EXTT12=
PLAYORDER=
